<svg width="203" height="159" viewBox="0 0 203 159" fill="none" xmlns="http://www.w3.org/2000/svg">
<path d="M153.786 96.0028C152.11 100.835 149.311 101.863 144.846 99.2836C144.563 99.12 144.299 98.928 144.018 98.7609C139.8 96.2519 139.803 96.2541 142.238 92.2869C142.513 91.8395 142.775 91.3748 142.956 90.8902C143.371 89.7855 143.801 88.4897 142.192 88.0289C140.82 87.6363 140.284 88.8552 139.89 89.8088C138.223 93.8342 139.495 97.7692 140.508 101.672C140.98 103.493 141.229 104.974 138.385 105.4C136.163 102.255 134.955 98.5766 133.209 95.1566C130.301 89.4598 127.618 83.664 124.829 77.9141C124.185 76.5848 123.793 75.2477 125.582 74.4819C127.593 73.6212 128.046 75.177 128.594 76.413C131.092 82.0521 133.569 87.6992 136.066 93.3381C136.14 93.5049 136.365 93.6138 136.593 93.8146C137.349 91.4341 137.086 88.8671 138.423 86.6836C139.513 84.9039 140.854 83.1991 143.376 83.9054C145.73 84.5645 145.908 86.5657 145.774 88.5114C145.725 89.2237 145.44 89.9212 145.381 90.634C145.253 92.1629 142.407 93.5977 145.01 95.1933C147.501 96.7203 150.113 98.5865 153.28 95.7021C153.653 95.8254 153.719 95.9141 153.786 96.0028Z" fill="white"/>
<path d="M153.483 95.6073C151.911 91.2526 153.784 88.2446 157.526 86.0551C159.306 85.0135 159.749 83.9005 158.549 82.2673C157.432 80.7459 156.103 79.8052 154.102 80.9222C152.344 81.9031 151.85 83.1465 153.385 84.7002C154.021 85.3442 154.053 85.9694 153.274 86.5482C152.603 87.0468 151.887 87.1442 151.11 86.7758C150.257 86.371 149.783 85.6914 149.575 84.8555C149.054 82.7535 151.867 79.1314 154.849 77.9722C157.701 76.8631 159.913 77.6692 161.328 80.0663C162.605 82.2284 163.61 84.5327 164.671 86.8004C165.848 89.3155 167.223 91.2395 170.619 88.4382C170.918 90.6774 169.753 91.5088 168.425 92.2206C166.154 93.439 164.455 92.1936 162.799 90.8695C160.798 97.0588 158.737 98.2907 153.993 96.0707C153.719 95.9141 153.653 95.8254 153.483 95.6073ZM160.686 90.1184C160.574 89.048 161.134 87.8648 160.137 86.9371C158.83 86.9614 158.047 87.7128 157.383 88.5244C156.512 89.5897 155.641 90.7081 156.388 92.1832C156.735 92.8668 157.199 93.5452 158.071 93.4544C159.836 93.2707 160.191 91.8674 160.686 90.1184Z" fill="white"/>
<path d="M102.273 55.4271C101.352 58.3189 100.523 60.9923 99.6834 63.6627C97.588 70.3231 92.3136 74.1382 84.8039 74.3259C83.1717 74.3668 81.2106 74.4511 80.6643 72.5428C80.185 70.8689 81.6706 70.2193 83.093 69.7496C85.4793 68.9616 86.2528 70.3783 86.7745 72.5843C95.9636 69.6443 94.1193 61.3744 97.1185 55.9542C96.2513 54.3292 94.7524 55.236 93.5495 54.0738C97.7804 52.4139 102.038 52.1136 106.305 51.6211C105.2 53.1673 102.785 53.1858 102.273 55.4271Z" fill="white"/>
<path d="M107.472 100.015C110.093 99.3819 112.873 97.9066 115.038 100.719C116.54 102.671 115.516 105.088 112.207 107.885C111.144 108.783 110.001 109.6 108.78 110.543C109.659 112.971 111.48 114.431 114.081 114.54C116.82 114.654 117.595 111.785 120.064 110.158C120.052 113.511 118.859 115.622 116.359 117.03C113.563 118.605 110.817 118.193 108.294 116.396C103.255 112.808 102.815 105.596 107.39 100.178C107.498 100.002 107.472 100.015 107.472 100.015ZM111.58 105.314C112.14 104.132 112.075 103.067 110.766 102.369C109.753 101.83 108.749 102.123 108.056 102.877C106.589 104.474 106.901 106.239 107.553 108.047C109.582 108.096 110.415 106.826 111.58 105.314Z" fill="white"/>
<path d="M122.612 98.1485C122.948 98.7669 123.187 99.21 123.426 99.6531C123.215 97.8842 123.791 96.2296 124.084 94.5619C124.345 93.0716 125.202 91.8305 126.836 91.3259C128.205 90.9034 129.233 91.4244 129.792 92.6505C130.251 93.6598 130.055 94.5533 128.84 94.8873C125.5 95.8054 125.564 98.3 125.951 100.66C126.399 103.399 127.232 106.091 128.036 108.768C128.577 110.57 128.014 111.543 125.545 111.907C123.953 108.632 122.254 105.306 120.718 101.915C119.707 99.6825 118.46 98.1373 115.251 99.585C115.475 96.9089 117.302 95.8332 119.173 95.2774C121.377 94.6225 121.732 96.6923 122.612 98.1485Z" fill="white"/>
<path d="M107.511 99.9946C104.588 97.8714 101.653 95.7551 98.2485 93.3005C101.882 91.9987 103.641 94.7622 106.282 94.9884C107.04 92.8596 106.399 90.2611 109.224 87.8053C108.678 92.2933 110.293 96.0798 107.65 99.8267C107.472 100.015 107.498 100.002 107.511 99.9946Z" fill="white"/>
<path d="M21.1976 128.804C19.7991 128.849 18.6302 128.826 18.2432 127.55C17.9268 126.508 18.6731 125.802 19.3944 125.137C25.0973 119.881 31.7358 116.079 39.4723 113.998C40.8471 113.628 42.4665 112.987 43.3216 114.578C44.1003 116.027 42.8743 117.188 41.8283 118.061C35.8856 123.018 29.229 126.84 21.1976 128.804ZM34.208 121.561C36.9145 120.033 39.371 118.266 41.3464 115.562C35.5878 115.43 22.441 122.97 20.8448 127.307C25.8266 126.458 29.8194 124.139 34.208 121.561Z" fill="white"/>
<path d="M199.6 50.8982C191.928 76.4807 173.812 94.7431 152.648 110.749C129.198 128.485 102.775 140.914 73.2189 147.25C57.323 150.657 41.3662 151.73 25.5053 147.03C14.265 143.699 5.29365 137.886 1.5842 126.847C-0.946101 119.318 -0.194994 111.771 2.07705 104.302C6.7973 88.7873 16.1977 75.82 27.918 64.2618C55.8917 36.6747 89.631 18.1516 129.442 9.63248C143.61 6.60059 157.984 5.80329 172.308 9.30095C185.122 12.4299 194.894 18.8157 199.458 31.1468C199.6 37.7452 199.6 44.1761 199.6 50.8982ZM153.6 37.9365C137.895 48.9818 122.207 60.0475 106.465 71.0461C104.537 72.3934 103.121 73.9674 102.011 75.9441C94.0289 90.1606 85.9831 104.346 77.9495 118.538C74.9953 123.756 72.0108 128.96 69.0596 134.18C68.3579 135.421 67.3234 136.111 65.8201 135.818C64.3258 135.527 64.6265 134.277 64.5042 133.292C63.5874 125.913 62.8265 118.513 61.6758 111.166C61.311 108.837 61.7342 106.23 59.9984 103.85C51.9304 109.729 43.2789 114.536 37.2242 122.212C35.4527 124.458 33.3538 126.482 31.3767 128.585C30.5726 129.441 29.7523 130.309 28.3442 130.269C21.9388 130.087 15.5633 129.626 8.86371 128.782C10.5096 124.438 13.3688 121.049 15.0832 117.179C16.8852 113.111 19.9589 111.265 24.5148 110.498C29.2954 109.693 34.3698 109.173 38.5762 106.865C44.9812 103.35 50.9664 99.1769 57.1819 95.3565C58.7901 94.368 59.3752 93.1273 59.1394 91.4277C57.8329 82.0137 56.6461 72.5836 55.1799 63.1913C54.5025 58.8517 52.3367 57.4112 47.6189 57.4698C41.89 57.541 37.0956 58.6627 32.69 63.0365C21.0213 74.6209 10.3143 86.6475 4.58998 101.859C1.32686 110.53 -0.0539314 119.365 3.84379 128.18C8.6771 139.111 18.5368 144.181 30.211 146.586C43.2426 149.271 56.3312 148.381 69.2074 145.61C106.909 137.496 138.852 119.923 165.463 93.9464C176.15 83.5143 184.854 71.7967 189.415 57.8018C191.983 49.9222 192.775 41.9166 189.488 34.0756C185.291 24.0653 176.652 18.684 165.93 16.0707C149.782 12.1349 133.739 13.8679 117.868 17.6873C94.7469 23.2512 73.8487 33.1855 54.5027 46.0612C50.9428 48.4305 47.5696 51.0427 44.1103 53.5427C44.2533 53.8293 44.3963 54.1159 44.5394 54.4024C56.6358 51.7055 68.7322 49.0086 80.876 46.3011C81.7607 49.2426 79.8266 49.5527 78.1636 50.0582C70.3186 52.4427 69.0567 53.9894 69.574 61.4222C69.8963 66.0532 70.3468 70.6933 71.114 75.275C71.6491 78.4708 71.5923 81.7914 72.772 84.8539C74.2041 84.8668 75.0655 84.1653 75.9744 83.5917C80.7607 80.5714 85.2958 77.1158 90.3716 74.6043C98.0876 70.7865 102.89 64.9589 106.125 57.6879C107.231 55.2043 108.674 52.8374 109.605 50.3032C111.073 46.3027 109.413 44.3512 104.903 44.3606C103.718 44.3631 102.475 44.8668 101.331 44.0674C100.686 41.9603 102.024 41.4217 103.881 41.0045C111.655 39.2584 119.387 37.3472 127.178 35.6736C128.782 35.329 130.488 34.2728 133.18 35.7963C129.045 39.7869 123.159 41.5154 120.003 46.1199C116.812 50.7751 113.62 55.3841 111.072 60.3414C111.319 60.5482 111.567 60.7551 111.815 60.9619C130.983 48.9532 150.152 36.9445 169.32 24.9358C169.606 25.3124 169.893 25.6891 170.179 26.0657C164.778 29.9311 159.377 33.7965 153.6 37.9365ZM24.863 112.05C20.8201 112.369 18.1998 114.298 16.6609 117.826C15.6218 120.209 14.1049 122.41 12.8093 124.697C12.3058 125.585 11.5269 126.427 12.2958 127.803C17.1689 127.344 21.9896 128.921 26.9984 128.723C28.6502 128.658 29.7198 128.092 30.6359 126.961C37.9957 117.877 46.7892 110.181 57.0706 104.056C60.5658 101.974 60.7588 99.6234 59.2716 96.3538C56.2523 97.3653 53.8301 99.1927 51.3998 100.889C43.5811 106.346 35.3333 110.831 24.863 112.05ZM86.3225 92.7341C88.2195 89.3217 90.1166 85.9093 92.2326 82.1032C91.1859 82.2363 90.8036 82.1783 90.5884 82.328C85.345 85.9755 80.1162 89.6414 74.8946 93.3159C74.2628 93.7605 73.6226 94.3435 73.7696 95.113C74.6711 99.8298 74.5847 104.691 76.1591 110.033C80.3215 104.367 82.6309 98.4479 86.3225 92.7341ZM87.0349 82.8044C90.9446 79.7805 96.205 77.8716 97.3163 72.0291C89.5416 76.8818 82.0796 81.5079 74.6582 86.1897C72.2298 87.7217 72.5485 89.6333 74.0416 91.9643C78.3897 88.8912 82.5167 85.9744 87.0349 82.8044ZM121.71 56.7468C116.471 60.3058 110.037 62.5328 106.753 68.2827C114.886 63.5451 122.338 57.9855 129.47 51.978C127.016 53.4827 124.562 54.9874 121.71 56.7468Z" fill="white"/>
</svg>
