<svg version="1.1" id="Layer_1" xmlns="http://www.w3.org/2000/svg" xmlns:xlink="http://www.w3.org/1999/xlink" x="0px" y="0px"
	 width="100%" viewBox="0 0 415 348" enable-background="new 0 0 415 348" xml:space="preserve">
<path fill="#000000" opacity="1.000000" stroke="none" 
	d="
M254.000000,349.000000 
	C169.333344,349.000000 85.166695,349.000000 1.000034,349.000000 
	C1.000023,233.000031 1.000023,117.000069 1.000011,1.000081 
	C139.333267,1.000054 277.666534,1.000054 415.999878,1.000027 
	C415.999908,116.999916 415.999908,232.999832 415.999939,348.999878 
	C362.166656,349.000000 308.333344,349.000000 254.000000,349.000000 
M29.914152,302.982849 
	C29.914152,302.982849 29.830063,302.962555 30.094215,303.613556 
	C32.759727,305.744873 35.226547,308.205322 38.123131,309.953857 
	C56.315578,320.935883 76.470329,325.119110 97.353210,325.904907 
	C116.218536,326.614807 134.786057,324.092010 153.307114,320.177826 
	C177.963654,314.966980 201.513504,306.593109 224.182236,296.042847 
	C241.192047,288.126312 257.345612,278.321320 273.662811,268.977142 
	C296.478149,255.911743 316.725494,239.328995 335.837036,221.443756 
	C345.334625,212.555618 353.928741,202.659119 362.528137,192.864594 
	C374.508820,179.218964 384.786133,164.281967 392.907593,148.050049 
	C403.472595,126.934265 410.441925,104.910866 407.025421,80.759537 
	C405.769470,71.880913 403.444000,63.180294 398.259277,55.997002 
	C387.713593,41.386211 373.749603,30.728136 356.156036,26.178307 
	C345.711212,23.477192 334.824890,21.766937 324.053986,21.205538 
	C306.467651,20.288910 288.700439,20.002106 271.445648,24.355145 
	C255.287262,28.431593 239.149109,32.799976 223.374268,38.139553 
	C193.277939,48.326775 164.927032,62.450481 138.606842,80.183685 
	C122.633202,90.945908 107.172630,102.669281 92.606270,115.261864 
	C79.255295,126.803749 66.651390,139.431686 55.098347,152.775879 
	C40.304741,169.863022 28.014950,188.850449 19.022253,209.767319 
	C12.924013,223.951721 8.742552,238.716492 8.157994,254.131393 
	C7.686468,266.565674 10.676069,278.675995 17.280022,289.295959 
	C20.514456,294.497345 25.660786,298.509857 29.914152,302.982849 
z"/>
<path fill="#FFFFFF" opacity="1.000000" stroke="none" 
	d="
M29.941805,303.060425 
	C25.660786,298.509857 20.514456,294.497345 17.280022,289.295959 
	C10.676069,278.675995 7.686468,266.565674 8.157994,254.131393 
	C8.742552,238.716492 12.924013,223.951721 19.022253,209.767319 
	C28.014950,188.850449 40.304741,169.863022 55.098347,152.775879 
	C66.651390,139.431686 79.255295,126.803749 92.606270,115.261864 
	C107.172630,102.669281 122.633202,90.945908 138.606842,80.183685 
	C164.927032,62.450481 193.277939,48.326775 223.374268,38.139553 
	C239.149109,32.799976 255.287262,28.431593 271.445648,24.355145 
	C288.700439,20.002106 306.467651,20.288910 324.053986,21.205538 
	C334.824890,21.766937 345.711212,23.477192 356.156036,26.178307 
	C373.749603,30.728136 387.713593,41.386211 398.259277,55.997002 
	C403.444000,63.180294 405.769470,71.880913 407.025421,80.759537 
	C410.441925,104.910866 403.472595,126.934265 392.907593,148.050049 
	C384.786133,164.281967 374.508820,179.218964 362.528137,192.864594 
	C353.928741,202.659119 345.334625,212.555618 335.837036,221.443756 
	C316.725494,239.328995 296.478149,255.911743 273.662811,268.977142 
	C257.345612,278.321320 241.192047,288.126312 224.182236,296.042847 
	C201.513504,306.593109 177.963654,314.966980 153.307114,320.177826 
	C134.786057,324.092010 116.218536,326.614807 97.353210,325.904907 
	C76.470329,325.119110 56.315578,320.935883 38.123131,309.953857 
	C35.226547,308.205322 32.759727,305.744873 30.266943,302.979980 
	C31.680515,303.114868 32.890980,303.938446 34.167324,304.642548 
	C40.474537,308.122070 46.556118,312.151733 53.166027,314.913269 
	C69.122696,321.579803 86.003281,322.415131 103.104553,322.115570 
	C116.091530,321.888092 128.835526,320.477112 141.581848,318.075989 
	C169.395111,312.836578 195.704239,303.231659 221.217148,291.285309 
	C241.812912,281.641418 261.950439,271.022400 279.851349,256.898346 
	C296.133667,244.051361 312.094666,230.730011 327.425262,216.769958 
	C336.150513,208.824722 343.437653,199.274292 351.178558,190.279861 
	C363.672760,175.762405 374.213348,159.973022 381.403961,142.120010 
	C388.433990,124.665726 392.265472,106.740738 389.003113,87.831680 
	C386.608063,73.949654 379.809448,62.309391 368.985840,53.732002 
	C351.940125,40.223782 331.559753,35.281109 310.260895,34.122967 
	C302.384491,33.694687 294.397736,34.316338 286.522888,35.087776 
	C276.668640,36.053120 266.780884,37.175373 257.077972,39.092285 
	C228.893188,44.660473 202.244690,54.934952 176.454712,67.302841 
	C154.939545,77.620705 134.544510,89.980621 115.323654,104.189323 
	C107.808861,109.744514 100.344902,115.368484 92.857796,120.961136 
	C93.089172,121.412033 93.320549,121.862938 93.551926,122.313843 
	C118.562576,116.333839 143.573227,110.353828 168.213272,104.462433 
	C170.645279,110.107094 166.693420,110.673424 164.153656,111.906349 
	C160.869049,113.500839 157.050461,114.162331 154.039825,116.116211 
	C149.143936,119.293579 145.017853,123.229469 145.945816,130.129257 
	C146.860596,136.931091 147.301727,143.795639 148.006531,150.626923 
	C149.289017,163.057388 150.612823,175.483597 151.969009,188.383606 
	C153.785721,187.523743 155.014160,187.119873 156.048294,186.426300 
	C172.379654,175.472870 188.690201,164.488373 204.990433,153.488678 
	C206.323242,152.589279 208.107910,151.798904 208.734558,150.500366 
	C215.012634,137.490738 221.352966,124.498802 227.116165,111.258316 
	C229.958115,104.729225 225.698151,99.142204 218.626999,99.008736 
	C215.816971,98.955688 213.005096,99.000015 210.324341,99.000015 
	C209.060196,94.784592 211.658493,93.734077 214.522888,93.014923 
	C225.273560,90.315788 236.033691,87.654045 246.797028,85.005791 
	C255.028503,82.980469 263.270172,80.996605 271.507324,78.994308 
	C271.949249,79.331261 272.391144,79.668213 272.833069,80.005157 
	C271.497894,81.998238 270.589050,85.086395 268.755798,85.800110 
	C259.427826,89.431679 252.995468,96.566505 247.197540,103.948311 
	C241.372940,111.364090 236.933807,119.881577 232.043518,128.010117 
	C230.406250,130.731552 229.249268,133.741928 227.872742,136.620239 
	C245.514145,125.986649 262.226532,114.769524 278.937805,103.550728 
	C294.598358,93.037300 310.216949,82.460640 325.938721,72.039574 
	C331.811005,68.147171 337.922699,64.615952 344.130371,61.094566 
	C344.482208,61.372616 344.628876,61.476162 344.549835,61.844620 
	C340.920654,64.869492 337.589905,67.725166 334.102020,70.373947 
	C310.768463,88.094078 287.434418,105.814049 264.008759,123.411880 
	C260.596680,125.975105 256.695068,127.886612 252.705566,129.813858 
	C263.547241,120.875198 274.703308,112.222359 285.859344,103.569519 
	C284.433838,103.184296 283.365356,103.444214 282.516998,104.025429 
	C264.420776,116.423225 246.259216,128.729675 228.350876,141.393997 
	C224.867966,143.857040 222.389587,147.740509 219.447845,150.968796 
	C219.931808,151.465622 220.415771,151.962448 220.899750,152.459274 
	C227.578461,147.493774 234.177933,142.416458 240.966446,137.605896 
	C244.863235,134.844528 249.066696,132.515900 253.069489,130.353729 
	C246.608551,135.815506 240.107254,140.793213 233.837555,146.047272 
	C225.770370,152.807663 216.108353,157.612076 210.903259,167.757477 
	C196.891800,195.067657 182.391571,222.128403 167.952209,249.217194 
	C160.394165,263.396362 152.622559,277.463501 144.768112,291.480804 
	C143.675613,293.430511 141.551956,294.802460 139.905640,296.441864 
	C139.249771,296.236115 138.593887,296.030365 137.938019,295.824615 
	C134.990005,273.176971 132.042007,250.529343 129.035202,227.430023 
	C126.808601,228.286530 125.427803,228.491913 124.466476,229.237854 
	C114.838860,236.708496 104.689217,243.642227 95.865303,251.975311 
	C86.698784,260.631958 78.826881,270.660553 70.403053,280.101837 
	C68.150848,282.626099 65.907440,284.583893 61.977505,284.087067 
	C54.350201,283.122833 46.658310,282.670715 38.993885,281.998352 
	C34.685097,281.620361 30.377718,281.226257 25.563456,280.793945 
	C30.385851,271.497223 34.815567,262.772919 39.423626,254.143860 
	C42.150272,249.037918 44.732555,243.832367 51.660404,243.012695 
	C56.600086,242.428223 61.486778,241.199860 66.320435,239.959915 
	C74.195023,237.939865 82.394989,236.992645 89.338875,232.017273 
	C100.362236,224.118942 111.504875,216.376938 122.806335,208.884476 
	C125.411186,207.157578 126.368423,205.465591 126.018867,202.562286 
	C124.966583,193.822083 124.113922,185.056671 122.972786,176.328629 
	C121.372467,164.088501 119.784348,151.839264 117.740250,139.669632 
	C117.187195,136.377045 115.839943,132.148865 113.399055,130.469498 
	C108.622116,127.182854 102.789253,126.119667 96.712952,127.602547 
	C93.615891,128.358368 90.302986,128.229721 87.087654,128.500854 
	C86.973503,127.975632 86.859352,127.450401 86.745193,126.925171 
	C72.049156,139.688004 58.928200,153.898254 47.058411,169.353104 
	C29.887369,191.710342 15.979532,215.481430 11.929510,244.011856 
	C9.362590,262.094574 11.653927,278.929474 23.222960,293.753845 
	C25.575275,296.768097 27.707901,299.953766 29.941805,303.060425 
M88.394119,255.084000 
	C100.431259,245.062988 112.204979,234.697571 124.634819,225.189957 
	C129.626999,221.371399 127.694733,217.298950 127.499107,213.025970 
	C127.452827,212.015182 126.835358,211.030548 126.279121,209.467651 
	C118.431480,214.837784 110.957787,220.125931 103.304039,225.139206 
	C96.064781,229.880997 89.118393,235.620148 81.172707,238.597900 
	C70.566490,242.572769 59.107758,244.257828 48.051147,247.067871 
	C46.875580,247.366638 45.552090,248.392563 44.955425,249.451920 
	C40.382790,257.570374 35.942371,265.764160 31.542416,273.978241 
	C30.779930,275.401703 30.403156,277.031769 29.842785,278.581482 
	C41.210155,279.765167 51.914402,280.973846 62.643616,281.890228 
	C64.158104,282.019592 66.288979,281.158630 67.294792,280.016541 
	C74.329132,272.029144 81.142540,263.847168 88.394119,255.084000 
M156.999985,227.454681 
	C157.736801,232.342499 158.473633,237.230316 159.210449,242.118149 
	C159.611298,242.076569 160.012161,242.035004 160.413010,241.993439 
	C171.406815,220.851822 182.400604,199.710190 193.394409,178.568573 
	C192.984589,178.297424 192.574783,178.026276 192.164978,177.755127 
	C180.832962,186.281845 169.574493,194.909561 158.112671,203.258102 
	C155.529205,205.139832 154.601700,207.122589 154.987381,210.093460 
	C155.698242,215.569168 156.333328,221.054718 156.999985,227.454681 
M154.000809,199.991837 
	C154.250076,203.593964 155.665314,201.540848 156.928650,200.623154 
	C167.746094,192.765427 178.783051,185.190704 189.324524,176.979507 
	C195.588715,172.100067 201.580994,166.610809 204.170700,157.647339 
	C202.323517,158.494522 200.997238,158.900818 199.893646,159.639709 
	C186.676804,168.488815 173.598557,177.550476 160.245956,186.188477 
	C155.259491,189.414261 152.912781,193.279541 154.000809,199.991837 
z"/>
<path fill="#000000" opacity="1.000000" stroke="none" 
	d="
M343.925232,60.920059 
	C337.922699,64.615952 331.811005,68.147171 325.938721,72.039574 
	C310.216949,82.460640 294.598358,93.037300 278.937805,103.550728 
	C262.226532,114.769524 245.514145,125.986649 227.872742,136.620239 
	C229.249268,133.741928 230.406250,130.731552 232.043518,128.010117 
	C236.933807,119.881577 241.372940,111.364090 247.197540,103.948311 
	C252.995468,96.566505 259.427826,89.431679 268.755798,85.800110 
	C270.589050,85.086395 271.497894,81.998238 272.833069,80.005157 
	C272.391144,79.668213 271.949249,79.331261 271.507324,78.994308 
	C263.270172,80.996605 255.028503,82.980469 246.797028,85.005791 
	C236.033691,87.654045 225.273560,90.315788 214.522888,93.014923 
	C211.658493,93.734077 209.060196,94.784592 210.324341,99.000015 
	C213.005096,99.000015 215.816971,98.955688 218.626999,99.008736 
	C225.698151,99.142204 229.958115,104.729225 227.116165,111.258316 
	C221.352966,124.498802 215.012634,137.490738 208.734558,150.500366 
	C208.107910,151.798904 206.323242,152.589279 204.990433,153.488678 
	C188.690201,164.488373 172.379654,175.472870 156.048294,186.426300 
	C155.014160,187.119873 153.785721,187.523743 151.969009,188.383606 
	C150.612823,175.483597 149.289017,163.057388 148.006531,150.626923 
	C147.301727,143.795639 146.860596,136.931091 145.945816,130.129257 
	C145.017853,123.229469 149.143936,119.293579 154.039825,116.116211 
	C157.050461,114.162331 160.869049,113.500839 164.153656,111.906349 
	C166.693420,110.673424 170.645279,110.107094 168.213272,104.462433 
	C143.573227,110.353828 118.562576,116.333839 93.551926,122.313843 
	C93.320549,121.862938 93.089172,121.412033 92.857796,120.961136 
	C100.344902,115.368484 107.808861,109.744514 115.323654,104.189323 
	C134.544510,89.980621 154.939545,77.620705 176.454712,67.302841 
	C202.244690,54.934952 228.893188,44.660473 257.077972,39.092285 
	C266.780884,37.175373 276.668640,36.053120 286.522888,35.087776 
	C294.397736,34.316338 302.384491,33.694687 310.260895,34.122967 
	C331.559753,35.281109 351.940125,40.223782 368.985840,53.732002 
	C379.809448,62.309391 386.608063,73.949654 389.003113,87.831680 
	C392.265472,106.740738 388.433990,124.665726 381.403961,142.120010 
	C374.213348,159.973022 363.672760,175.762405 351.178558,190.279861 
	C343.437653,199.274292 336.150513,208.824722 327.425262,216.769958 
	C312.094666,230.730011 296.133667,244.051361 279.851349,256.898346 
	C261.950439,271.022400 241.812912,281.641418 221.217148,291.285309 
	C195.704239,303.231659 169.395111,312.836578 141.581848,318.075989 
	C128.835526,320.477112 116.091530,321.888092 103.104553,322.115570 
	C86.003281,322.415131 69.122696,321.579803 53.166027,314.913269 
	C46.556118,312.151733 40.474537,308.122070 34.167324,304.642548 
	C32.890980,303.938446 31.680515,303.114868 30.134867,302.654480 
	C29.830063,302.962555 29.914152,302.982849 29.927977,303.021637 
	C27.707901,299.953766 25.575275,296.768097 23.222960,293.753845 
	C11.653927,278.929474 9.362590,262.094574 11.929510,244.011856 
	C15.979532,215.481430 29.887369,191.710342 47.058411,169.353104 
	C58.928200,153.898254 72.049156,139.688004 86.745193,126.925171 
	C86.859352,127.450401 86.973503,127.975632 87.087654,128.500854 
	C90.302986,128.229721 93.615891,128.358368 96.712952,127.602547 
	C102.789253,126.119667 108.622116,127.182854 113.399055,130.469498 
	C115.839943,132.148865 117.187195,136.377045 117.740250,139.669632 
	C119.784348,151.839264 121.372467,164.088501 122.972786,176.328629 
	C124.113922,185.056671 124.966583,193.822083 126.018867,202.562286 
	C126.368423,205.465591 125.411186,207.157578 122.806335,208.884476 
	C111.504875,216.376938 100.362236,224.118942 89.338875,232.017273 
	C82.394989,236.992645 74.195023,237.939865 66.320435,239.959915 
	C61.486778,241.199860 56.600086,242.428223 51.660404,243.012695 
	C44.732555,243.832367 42.150272,249.037918 39.423626,254.143860 
	C34.815567,262.772919 30.385851,271.497223 25.563456,280.793945 
	C30.377718,281.226257 34.685097,281.620361 38.993885,281.998352 
	C46.658310,282.670715 54.350201,283.122833 61.977505,284.087067 
	C65.907440,284.583893 68.150848,282.626099 70.403053,280.101837 
	C78.826881,270.660553 86.698784,260.631958 95.865303,251.975311 
	C104.689217,243.642227 114.838860,236.708496 124.466476,229.237854 
	C125.427803,228.491913 126.808601,228.286530 129.035202,227.430023 
	C132.042007,250.529343 134.990005,273.176971 137.938019,295.824615 
	C138.593887,296.030365 139.249771,296.236115 139.905640,296.441864 
	C141.551956,294.802460 143.675613,293.430511 144.768112,291.480804 
	C152.622559,277.463501 160.394165,263.396362 167.952209,249.217194 
	C182.391571,222.128403 196.891800,195.067657 210.903259,167.757477 
	C216.108353,157.612076 225.770370,152.807663 233.837555,146.047272 
	C240.107254,140.793213 246.608551,135.815506 253.027649,130.366089 
	C253.048401,130.017197 253.019943,130.099670 253.019943,130.099670 
	C256.695068,127.886612 260.596680,125.975105 264.008759,123.411880 
	C287.434418,105.814049 310.768463,88.094078 334.102020,70.373947 
	C337.589905,67.725166 340.920654,64.869492 344.772614,61.653366 
	C345.352844,60.861874 345.484558,60.526550 345.616241,60.191223 
	C345.052582,60.434170 344.488892,60.677116 343.925232,60.920059 
M282.185242,208.016785 
	C285.059509,209.792816 287.860260,211.703674 290.822418,213.318497 
	C298.351318,217.422806 303.696899,214.702637 305.354462,205.634186 
	C299.824677,210.042542 294.828186,207.416565 289.870575,204.965332 
	C286.809692,203.451920 286.333923,201.006149 287.503296,197.915436 
	C288.576935,195.077927 289.493500,192.169769 290.288910,189.241043 
	C291.282837,185.581512 289.945007,182.360107 286.899292,180.583267 
	C283.908264,178.838272 280.383423,179.598572 278.825012,182.837479 
	C276.784271,187.078857 275.292511,191.646133 274.112000,196.214691 
	C273.481049,198.656357 274.000000,201.395172 274.000000,203.999878 
	C273.574524,204.001480 273.149017,204.003082 272.723541,204.004684 
	C266.275024,188.922928 259.826508,173.841171 253.333511,158.655441 
	C248.530624,161.437927 248.193649,161.581619 250.035202,165.900162 
	C257.760834,184.017136 265.644196,202.068024 273.660187,220.058304 
	C274.515350,221.977554 276.614288,223.342606 278.136261,224.964737 
	C278.756836,222.607101 279.406342,220.256363 279.971954,217.885620 
	C280.076721,217.446625 279.810791,216.929581 279.770538,216.444031 
	C279.175751,209.264481 278.497314,202.089584 278.077393,194.899658 
	C277.988831,193.383636 278.408356,191.359894 279.396790,190.380676 
	C280.616608,189.172241 282.675934,188.811188 284.372467,188.083954 
	C284.795990,189.661407 285.947083,191.492279 285.502869,192.767471 
	C284.302490,196.213364 282.706940,199.607025 280.720123,202.665405 
	C279.244965,204.936188 279.330017,206.379257 282.185242,208.016785 
M327.959320,184.534470 
	C325.635345,180.314972 323.765289,175.739502 320.831451,171.998276 
	C318.798370,169.405701 315.274536,166.313858 312.460358,166.356003 
	C306.925354,166.438919 297.671783,175.701462 299.079559,182.651367 
	C299.311127,183.794495 300.402679,185.273956 301.423065,185.611389 
	C302.575958,185.992645 304.295654,185.563797 305.362610,184.866058 
	C305.803375,184.577789 305.367249,182.615082 305.009979,181.518143 
	C304.472351,179.867325 303.653656,178.308044 302.977417,176.762405 
	C309.820648,169.249344 314.009674,170.470352 318.952911,181.290466 
	C313.641327,185.412460 307.544617,188.704727 305.882477,196.202057 
	C304.858337,200.821854 306.338440,205.216843 310.429840,207.035934 
	C314.352112,208.779831 318.678528,207.234863 320.955963,203.008682 
	C322.357819,200.407288 323.382202,197.602463 324.427338,195.227005 
	C328.336121,194.941574 329.750031,201.387741 334.128296,197.960815 
	C336.740967,195.915863 339.159393,193.622711 341.665131,191.441132 
	C341.327026,191.041824 340.988953,190.642502 340.650848,190.243195 
	C338.710754,191.173508 336.770630,192.103821 334.391388,193.244720 
	C332.284973,190.610474 330.155579,187.947464 327.959320,184.534470 
M208.797256,113.018394 
	C209.937057,112.402443 211.076843,111.786499 212.216644,111.170547 
	C212.048996,110.724968 211.881332,110.279388 211.713684,109.833809 
	C204.875046,111.370926 198.036407,112.908043 191.860916,114.296097 
	C192.310257,117.763969 193.413605,120.528465 192.833572,122.877228 
	C191.071213,130.013412 189.007919,137.121124 186.409683,143.993378 
	C183.197525,152.489487 177.753433,155.832367 170.905426,154.310806 
	C171.241913,152.982834 171.575211,151.667389 172.111221,149.551926 
	C168.845703,150.168823 166.018829,150.275391 163.610214,151.333786 
	C162.360184,151.883087 161.498734,154.046829 161.188965,155.624054 
	C161.075027,156.204193 163.006653,157.824539 164.085098,157.905396 
	C182.577194,159.291885 194.247177,151.457504 199.088150,133.221237 
	C200.957520,126.179298 201.886276,118.510857 208.797256,113.018394 
M219.990387,233.515640 
	C222.105621,231.400070 224.227295,229.290863 226.334778,227.167603 
	C231.024170,222.443115 231.331421,219.048035 227.450851,214.976242 
	C224.454025,211.831802 218.678497,212.375870 214.721634,215.706741 
	C207.296844,221.956924 206.957550,239.215805 212.939728,246.335297 
	C219.492065,254.133347 231.499466,254.210999 236.326385,245.355103 
	C239.128510,240.214127 239.503342,240.418427 237.870224,237.051437 
	C230.099609,249.389099 223.463516,247.809662 215.781174,237.246399 
	C216.976837,236.200974 218.227371,235.107574 219.990387,233.515640 
M251.011612,208.149033 
	C252.163101,206.720688 253.040726,204.846298 254.513870,203.941818 
	C260.634735,200.183685 260.707245,198.739319 254.503128,195.114899 
	C245.428925,199.700485 247.130432,208.112839 248.036636,217.463043 
	C244.738785,211.785553 242.329727,207.638214 239.948212,203.538269 
	C231.427811,208.047424 230.962402,208.540863 230.577728,213.163834 
	C232.224091,212.376846 233.775558,211.635223 236.410446,210.375717 
	C241.471359,220.480911 246.440475,230.402832 251.453369,240.412155 
	C256.045532,237.819702 255.149353,234.425110 254.554199,230.984009 
	C253.290146,223.675278 252.176254,216.340576 251.011612,208.149033 
M213.941437,196.515945 
	C213.442856,199.298035 212.944275,202.080109 212.399826,205.118118 
	C208.034073,202.994339 203.792969,200.931198 198.969254,198.584625 
	C199.080078,200.035858 198.831467,201.147644 199.244659,201.514969 
	C203.367554,205.180054 207.389404,209.017563 211.867599,212.205444 
	C215.404968,214.723572 216.838043,212.082993 216.956024,208.831955 
	C217.124466,204.190567 217.058411,199.537018 216.946487,194.892181 
	C216.923996,193.958145 216.248810,193.039825 215.810043,191.954727 
	C215.038788,192.592270 214.448563,192.840195 214.321045,193.236847 
	C214.074646,194.003464 214.089188,194.853958 213.941437,196.515945 
z"/>
<path fill="#000000" opacity="1.000000" stroke="none" 
	d="
M88.210388,255.405746 
	C81.142540,263.847168 74.329132,272.029144 67.294792,280.016541 
	C66.288979,281.158630 64.158104,282.019592 62.643616,281.890228 
	C51.914402,280.973846 41.210155,279.765167 29.842785,278.581482 
	C30.403156,277.031769 30.779930,275.401703 31.542416,273.978241 
	C35.942371,265.764160 40.382790,257.570374 44.955425,249.451920 
	C45.552090,248.392563 46.875580,247.366638 48.051147,247.067871 
	C59.107758,244.257828 70.566490,242.572769 81.172707,238.597900 
	C89.118393,235.620148 96.064781,229.880997 103.304039,225.139206 
	C110.957787,220.125931 118.431480,214.837784 126.279121,209.467651 
	C126.835358,211.030548 127.452827,212.015182 127.499107,213.025970 
	C127.694733,217.298950 129.626999,221.371399 124.634819,225.189957 
	C112.204979,234.697571 100.431259,245.062988 88.210388,255.405746 
M52.816441,272.000275 
	C66.138161,265.668152 78.667740,258.321381 86.898972,245.348358 
	C85.375740,245.338135 83.988907,245.692627 83.142288,246.569016 
	C79.829987,249.997620 77.146347,254.211075 73.384773,256.989929 
	C66.307083,262.218597 58.643982,266.654816 50.778732,271.802948 
	C50.647110,272.138245 50.515488,272.473572 50.383869,272.808868 
	C50.947517,272.565887 51.511166,272.322876 52.816441,272.000275 
M52.996513,257.497101 
	C49.468601,260.031281 45.798077,262.393951 42.466843,265.164581 
	C40.502922,266.798004 38.824780,268.929474 37.524094,271.135315 
	C36.945984,272.115723 37.120155,274.299286 37.858913,275.086823 
	C38.625450,275.904022 40.487629,275.693420 41.870632,275.932343 
	C41.949192,275.526367 42.027748,275.120422 42.106304,274.714447 
	C41.076954,274.286774 40.047600,273.859100 38.637630,273.273285 
	C44.684494,263.104370 56.065346,259.317810 63.451271,251.090637 
	C60.145535,253.053406 56.839798,255.016174 52.996513,257.497101 
z"/>
<path fill="#000000" opacity="1.000000" stroke="none" 
	d="
M157.000000,226.995422 
	C156.333328,221.054718 155.698242,215.569168 154.987381,210.093460 
	C154.601700,207.122589 155.529205,205.139832 158.112671,203.258102 
	C169.574493,194.909561 180.832962,186.281845 192.164978,177.755127 
	C192.574783,178.026276 192.984589,178.297424 193.394409,178.568573 
	C182.400604,199.710190 171.406815,220.851822 160.413010,241.993439 
	C160.012161,242.035004 159.611298,242.076569 159.210449,242.118149 
	C158.473633,237.230316 157.736801,232.342499 157.000000,226.995422 
z"/>
<path fill="#000000" opacity="1.000000" stroke="none" 
	d="
M154.000427,199.559143 
	C152.912781,193.279541 155.259491,189.414261 160.245956,186.188477 
	C173.598557,177.550476 186.676804,168.488815 199.893646,159.639709 
	C200.997238,158.900818 202.323517,158.494522 204.170700,157.647339 
	C201.580994,166.610809 195.588715,172.100067 189.324524,176.979507 
	C178.783051,185.190704 167.746094,192.765427 156.928650,200.623154 
	C155.665314,201.540848 154.250076,203.593964 154.000427,199.559143 
z"/>
<path fill="#000000" opacity="1.000000" stroke="none" 
	d="
M253.090240,130.004837 
	C249.066696,132.515900 244.863235,134.844528 240.966446,137.605896 
	C234.177933,142.416458 227.578461,147.493774 220.899750,152.459274 
	C220.415771,151.962448 219.931808,151.465622 219.447845,150.968796 
	C222.389587,147.740509 224.867966,143.857040 228.350876,141.393997 
	C246.259216,128.729675 264.420776,116.423225 282.516998,104.025429 
	C283.365356,103.444214 284.433838,103.184296 285.859344,103.569519 
	C274.703308,112.222359 263.547241,120.875198 252.705566,129.813843 
	C253.019943,130.099670 253.048401,130.017197 253.090240,130.004837 
z"/>
<path fill="#FFFFFF" opacity="1.000000" stroke="none" 
	d="
M281.788879,207.954163 
	C279.330017,206.379257 279.244965,204.936188 280.720123,202.665405 
	C282.706940,199.607025 284.302490,196.213364 285.502869,192.767471 
	C285.947083,191.492279 284.795990,189.661407 284.372467,188.083954 
	C282.675934,188.811188 280.616608,189.172241 279.396790,190.380676 
	C278.408356,191.359894 277.988831,193.383636 278.077393,194.899658 
	C278.497314,202.089584 279.175751,209.264481 279.770538,216.444031 
	C279.810791,216.929581 280.076721,217.446625 279.971954,217.885620 
	C279.406342,220.256363 278.756836,222.607101 278.136261,224.964752 
	C276.614288,223.342606 274.515350,221.977554 273.660187,220.058304 
	C265.644196,202.068024 257.760834,184.017136 250.035202,165.900162 
	C248.193649,161.581619 248.530624,161.437927 253.333511,158.655441 
	C259.826508,173.841171 266.275024,188.922928 272.723541,204.004684 
	C273.149017,204.003082 273.574524,204.001480 274.000000,203.999878 
	C274.000000,201.395172 273.481049,198.656357 274.112000,196.214691 
	C275.292511,191.646133 276.784271,187.078857 278.825012,182.837479 
	C280.383423,179.598572 283.908264,178.838272 286.899292,180.583267 
	C289.945007,182.360107 291.282837,185.581512 290.288910,189.241043 
	C289.493500,192.169769 288.576935,195.077927 287.503296,197.915436 
	C286.333923,201.006149 286.809692,203.451920 289.870575,204.965332 
	C294.828186,207.416565 299.824677,210.042542 305.354462,205.634186 
	C303.696899,214.702637 298.351318,217.422806 290.822418,213.318497 
	C287.860260,211.703674 285.059509,209.792816 281.788879,207.954163 
z"/>
<path fill="#FFFFFF" opacity="1.000000" stroke="none" 
	d="
M327.992737,184.909454 
	C330.155579,187.947464 332.284973,190.610474 334.391388,193.244720 
	C336.770630,192.103821 338.710754,191.173508 340.650848,190.243195 
	C340.988953,190.642502 341.327026,191.041824 341.665131,191.441132 
	C339.159393,193.622711 336.740967,195.915863 334.128296,197.960815 
	C329.750031,201.387741 328.336121,194.941574 324.427338,195.227005 
	C323.382202,197.602463 322.357819,200.407288 320.955963,203.008682 
	C318.678528,207.234863 314.352112,208.779831 310.429840,207.035934 
	C306.338440,205.216843 304.858337,200.821854 305.882477,196.202057 
	C307.544617,188.704727 313.641327,185.412460 318.952881,181.290436 
	C314.009674,170.470352 309.820648,169.249344 302.977417,176.762405 
	C303.653656,178.308044 304.472351,179.867325 305.009979,181.518143 
	C305.367249,182.615082 305.803375,184.577789 305.362610,184.866058 
	C304.295654,185.563797 302.575958,185.992645 301.423065,185.611389 
	C300.402679,185.273956 299.311127,183.794495 299.079559,182.651367 
	C297.671783,175.701462 306.925354,166.438919 312.460358,166.356003 
	C315.274536,166.313858 318.798370,169.405701 320.831451,171.998276 
	C323.765289,175.739502 325.635345,180.314972 327.992737,184.909454 
M316.954559,200.556686 
	C321.358978,195.311905 321.957336,190.502869 318.381042,184.136719 
	C316.857697,186.018143 315.519836,187.693604 314.152832,189.344940 
	C313.732208,189.853043 313.181396,190.255661 312.776154,190.773804 
	C309.239349,195.295578 310.579712,199.166229 316.954559,200.556686 
z"/>
<path fill="#FFFFFF" opacity="1.000000" stroke="none" 
	d="
M208.453186,113.190475 
	C201.886276,118.510857 200.957520,126.179298 199.088150,133.221237 
	C194.247177,151.457504 182.577194,159.291885 164.085098,157.905396 
	C163.006653,157.824539 161.075027,156.204193 161.188965,155.624054 
	C161.498734,154.046829 162.360184,151.883087 163.610214,151.333786 
	C166.018829,150.275391 168.845703,150.168823 172.111221,149.551926 
	C171.575211,151.667389 171.241913,152.982834 170.905426,154.310806 
	C177.753433,155.832367 183.197525,152.489487 186.409683,143.993378 
	C189.007919,137.121124 191.071213,130.013412 192.833572,122.877228 
	C193.413605,120.528465 192.310257,117.763969 191.860916,114.296097 
	C198.036407,112.908043 204.875046,111.370926 211.713684,109.833809 
	C211.881332,110.279388 212.048996,110.724968 212.216644,111.170547 
	C211.076843,111.786499 209.937057,112.402443 208.453186,113.190475 
z"/>
<path fill="#FFFFFF" opacity="1.000000" stroke="none" 
	d="
M219.734146,233.764893 
	C218.227371,235.107574 216.976837,236.200974 215.781174,237.246399 
	C223.463516,247.809662 230.099609,249.389099 237.870224,237.051437 
	C239.503342,240.418427 239.128510,240.214127 236.326385,245.355103 
	C231.499466,254.210999 219.492065,254.133347 212.939728,246.335297 
	C206.957550,239.215805 207.296844,221.956924 214.721634,215.706741 
	C218.678497,212.375870 224.454025,211.831802 227.450851,214.976242 
	C231.331421,219.048035 231.024170,222.443115 226.334778,227.167603 
	C224.227295,229.290863 222.105621,231.400070 219.734146,233.764893 
M216.891968,219.025070 
	C216.252472,219.527481 215.493088,219.932785 214.994019,220.548950 
	C212.693848,223.388718 211.885529,231.544235 214.042236,232.324554 
	C218.837189,234.059494 219.751511,229.293671 221.656006,226.737625 
	C224.765030,222.564987 223.121567,219.617142 216.891968,219.025070 
z"/>
<path fill="#FFFFFF" opacity="1.000000" stroke="none" 
	d="
M251.006195,208.582779 
	C252.176254,216.340576 253.290146,223.675278 254.554199,230.984009 
	C255.149353,234.425110 256.045532,237.819702 251.453369,240.412155 
	C246.440475,230.402832 241.471359,220.480911 236.410446,210.375717 
	C233.775558,211.635223 232.224091,212.376846 230.577728,213.163834 
	C230.962402,208.540863 231.427811,208.047424 239.948212,203.538269 
	C242.329727,207.638214 244.738785,211.785553 248.036636,217.463043 
	C247.130432,208.112839 245.428925,199.700485 254.503128,195.114899 
	C260.707245,198.739319 260.634735,200.183685 254.513870,203.941818 
	C253.040726,204.846298 252.163101,206.720688 251.006195,208.582779 
z"/>
<path fill="#FFFFFF" opacity="1.000000" stroke="none" 
	d="
M213.968506,196.092804 
	C214.089188,194.853958 214.074646,194.003464 214.321045,193.236847 
	C214.448563,192.840195 215.038788,192.592270 215.810043,191.954727 
	C216.248810,193.039825 216.923996,193.958145 216.946487,194.892181 
	C217.058411,199.537018 217.124466,204.190567 216.956024,208.831955 
	C216.838043,212.082993 215.404968,214.723572 211.867599,212.205444 
	C207.389404,209.017563 203.367554,205.180054 199.244659,201.514969 
	C198.831467,201.147644 199.080078,200.035858 198.969254,198.584625 
	C203.792969,200.931198 208.034073,202.994339 212.399826,205.118118 
	C212.944275,202.080109 213.442856,199.298035 213.968506,196.092804 
z"/>
<path fill="#FFFFFF" opacity="1.000000" stroke="none" 
	d="
M344.130371,61.094566 
	C344.488892,60.677116 345.052582,60.434170 345.616241,60.191223 
	C345.484558,60.526550 345.352844,60.861874 344.998352,61.388454 
	C344.628876,61.476162 344.482208,61.372616 344.130371,61.094566 
z"/>
<path fill="#FFFFFF" opacity="1.000000" stroke="none" 
	d="
M51.224274,271.420471 
	C58.643982,266.654816 66.307083,262.218597 73.384773,256.989929 
	C77.146347,254.211075 79.829987,249.997620 83.142288,246.569016 
	C83.988907,245.692627 85.375740,245.338135 86.898972,245.348358 
	C78.667740,258.321381 66.138161,265.668152 52.240425,271.865631 
	C51.517700,271.627502 51.370987,271.523987 51.224274,271.420471 
z"/>
<path fill="#FFFFFF" opacity="1.000000" stroke="none" 
	d="
M53.265289,257.238037 
	C56.839798,255.016174 60.145535,253.053406 63.451271,251.090637 
	C56.065346,259.317810 44.684494,263.104370 38.637630,273.273285 
	C40.047600,273.859100 41.076954,274.286774 42.106304,274.714447 
	C42.027748,275.120422 41.949192,275.526367 41.870632,275.932343 
	C40.487629,275.693420 38.625450,275.904022 37.858913,275.086823 
	C37.120155,274.299286 36.945984,272.115723 37.524094,271.135315 
	C38.824780,268.929474 40.502922,266.798004 42.466843,265.164581 
	C45.798077,262.393951 49.468601,260.031281 53.265289,257.238037 
z"/>
<path fill="#FFFFFF" opacity="1.000000" stroke="none" 
	d="
M51.869614,271.905457 
	C51.511166,272.322876 50.947517,272.565887 50.383869,272.808868 
	C50.515488,272.473572 50.647110,272.138245 51.001503,271.611694 
	C51.370987,271.523987 51.517700,271.627502 51.869614,271.905457 
z"/>
<path fill="#000000" opacity="1.000000" stroke="none" 
	d="
M316.621613,200.761383 
	C310.579712,199.166229 309.239349,195.295578 312.776154,190.773804 
	C313.181396,190.255661 313.732208,189.853043 314.152832,189.344940 
	C315.519836,187.693604 316.857697,186.018143 318.381042,184.136719 
	C321.957336,190.502869 321.358978,195.311905 316.621613,200.761383 
z"/>
<path fill="#000000" opacity="1.000000" stroke="none" 
	d="
M217.301620,219.013428 
	C223.121567,219.617142 224.765030,222.564987 221.656006,226.737625 
	C219.751511,229.293671 218.837189,234.059494 214.042236,232.324554 
	C211.885529,231.544235 212.693848,223.388718 214.994019,220.548950 
	C215.493088,219.932785 216.252472,219.527481 217.301620,219.013428 
z"/>
</svg>