<svg width="18" height="15" viewBox="0 0 18 15" fill="none" xmlns="http://www.w3.org/2000/svg">
<g clip-path="url(#clip0_114_261)">
<path d="M13.636 9.05688C13.4875 9.51273 13.2393 9.60973 12.8434 9.36638C12.8183 9.35095 12.7948 9.33284 12.7699 9.31707C12.3959 9.08037 12.3962 9.08058 12.6122 8.70632C12.6365 8.66411 12.6597 8.62027 12.6758 8.57456C12.7126 8.47034 12.7508 8.34809 12.608 8.30462C12.4864 8.26758 12.4389 8.38258 12.4039 8.47253C12.2561 8.85229 12.3689 9.22352 12.4587 9.59173C12.5006 9.76353 12.5226 9.90323 12.2705 9.9434C12.0734 9.6467 11.9663 9.29969 11.8115 8.97705C11.5537 8.43961 11.3157 7.89284 11.0685 7.35039C11.0114 7.22499 10.9766 7.09885 11.1353 7.0266C11.3136 6.9454 11.3538 7.09218 11.4023 7.20879C11.6238 7.74077 11.8434 8.27351 12.0649 8.80549C12.0714 8.82122 12.0914 8.8315 12.1116 8.85045C12.1786 8.62586 12.1553 8.3837 12.2739 8.1777C12.3705 8.00981 12.4894 7.84898 12.7131 7.91561C12.9218 7.97779 12.9375 8.16659 12.9257 8.35014C12.9213 8.41734 12.8961 8.48314 12.8908 8.55038C12.8795 8.69462 12.6271 8.82998 12.8579 8.98051C13.0788 9.12456 13.3104 9.30062 13.5912 9.0285C13.6243 9.04014 13.6302 9.04851 13.636 9.05688Z" fill="#A57B7B"/>
<path d="M13.6094 9.01956C13.47 8.60874 13.6361 8.32497 13.9679 8.11841C14.1258 8.02015 14.165 7.91515 14.0586 7.76107C13.9596 7.61755 13.8417 7.5288 13.6642 7.63417C13.5084 7.72672 13.4646 7.84402 13.6007 7.99059C13.6571 8.05135 13.6599 8.11032 13.5909 8.16493C13.5314 8.21197 13.4679 8.22116 13.399 8.1864C13.3233 8.14822 13.2813 8.08411 13.2629 8.00524C13.2166 7.80694 13.4661 7.46523 13.7305 7.35588C13.9834 7.25124 14.1795 7.32729 14.305 7.55343C14.4182 7.7574 14.5074 7.9748 14.6014 8.18873C14.7058 8.426 14.8277 8.60751 15.1288 8.34324C15.1554 8.55448 15.052 8.63291 14.9343 8.70007C14.7329 8.81501 14.5823 8.69752 14.4355 8.57261C14.258 9.1565 14.0752 9.27272 13.6546 9.06328C13.6303 9.04851 13.6245 9.04014 13.6094 9.01956ZM14.2481 8.50174C14.2381 8.40076 14.2878 8.28914 14.1994 8.20162C14.0835 8.20391 14.0141 8.2748 13.9552 8.35136C13.878 8.45187 13.8008 8.55738 13.867 8.69653C13.8977 8.76103 13.9389 8.82503 14.0162 8.81646C14.1727 8.79913 14.2042 8.66674 14.2481 8.50174Z" fill="#A57B7B"/>
<path d="M9.06851 5.22896C8.98683 5.50177 8.91334 5.75398 8.83884 6.0059C8.65305 6.63425 8.18537 6.99416 7.51949 7.01187C7.37475 7.01572 7.20086 7.02368 7.15242 6.84365C7.10993 6.68574 7.24165 6.62445 7.36778 6.58014C7.57938 6.5058 7.64796 6.63945 7.69422 6.84757C8.50901 6.57021 8.34548 5.79003 8.61142 5.27869C8.53452 5.12539 8.40161 5.21094 8.29495 5.10129C8.67011 4.9447 9.04763 4.91636 9.42597 4.8699C9.32805 5.01577 9.11389 5.01752 9.06851 5.22896Z" fill="#A57B7B"/>
<path d="M9.52965 9.43536C9.76202 9.37566 10.0086 9.23648 10.2005 9.50178C10.3337 9.68594 10.2429 9.91393 9.94944 10.1778C9.8552 10.2626 9.75389 10.3396 9.6456 10.4286C9.72352 10.6576 9.88505 10.7954 10.1157 10.8056C10.3585 10.8164 10.4272 10.5458 10.6462 10.3923C10.6451 10.7086 10.5393 10.9078 10.3177 11.0406C10.0697 11.1892 9.82619 11.1503 9.60249 10.9808C9.15569 10.6422 9.11672 9.96187 9.5224 9.45079C9.53196 9.43413 9.52965 9.43536 9.52965 9.43536ZM9.89385 9.93525C9.94351 9.82383 9.93782 9.72327 9.82169 9.65747C9.7319 9.60659 9.64291 9.63423 9.58145 9.70539C9.45134 9.85603 9.47897 10.0226 9.5368 10.1931C9.71674 10.1978 9.79055 10.0779 9.89385 9.93525Z" fill="#A57B7B"/>
<path d="M10.872 9.25929C10.9017 9.31762 10.9229 9.35943 10.9441 9.40123C10.9254 9.23435 10.9765 9.07825 11.0024 8.92093C11.0256 8.78033 11.1016 8.66325 11.2465 8.61564C11.3679 8.57578 11.4591 8.62493 11.5086 8.74061C11.5493 8.83582 11.5319 8.92011 11.4241 8.95163C11.128 9.03824 11.1337 9.27358 11.168 9.49621C11.2078 9.75458 11.2816 10.0086 11.3529 10.2611C11.4009 10.4311 11.351 10.5229 11.132 10.5573C10.9909 10.2483 10.8402 9.93447 10.704 9.6146C10.6143 9.404 10.5037 9.25822 10.2192 9.3948C10.2391 9.14234 10.4011 9.04086 10.567 8.98843C10.7624 8.92664 10.7939 9.12191 10.872 9.25929Z" fill="#A57B7B"/>
<path d="M9.53295 9.43345C9.2738 9.23314 9.01354 9.03349 8.71167 8.80193C9.03385 8.67912 9.18985 8.93982 9.42402 8.96116C9.49122 8.76034 9.4344 8.51519 9.68483 8.28351C9.63646 8.7069 9.77967 9.06412 9.54528 9.4176C9.52952 9.43535 9.53183 9.43411 9.53295 9.43345Z" fill="#A57B7B"/>
<path d="M1.87968 12.1513C1.75567 12.1556 1.65203 12.1534 1.61771 12.0331C1.58966 11.9347 1.65583 11.8681 1.71979 11.8054C2.22546 11.3096 2.8141 10.9509 3.50009 10.7545C3.622 10.7196 3.76559 10.6591 3.84141 10.8093C3.91046 10.946 3.80175 11.0555 3.709 11.1378C3.18206 11.6054 2.59182 11.966 1.87968 12.1513ZM3.03331 11.468C3.27329 11.3238 3.49111 11.1572 3.66627 10.9021C3.15566 10.8896 1.98993 11.6009 1.84839 12.0101C2.29013 11.93 2.64418 11.7112 3.03331 11.468Z" fill="#A57B7B"/>
<path d="M17.6985 4.80171C17.0182 7.21515 15.4119 8.93802 13.5353 10.448C11.456 12.1212 9.11304 13.2937 6.49231 13.8915C5.08283 14.2129 3.66794 14.3142 2.26155 13.8707C1.26487 13.5565 0.469388 13.0081 0.140471 11.9667C-0.0838907 11.2564 -0.0172901 10.5444 0.184172 9.83985C0.602716 8.37616 1.43625 7.15282 2.47549 6.06242C4.95592 3.45987 7.94757 1.7124 11.4776 0.908717C12.7339 0.62269 14.0085 0.547473 15.2786 0.87744C16.4148 1.17262 17.2813 1.77505 17.6859 2.93837C17.6985 3.56086 17.6985 4.16755 17.6985 4.80171ZM13.6197 3.57891C12.2272 4.62092 10.8361 5.66485 9.44025 6.70245C9.26926 6.82956 9.14371 6.97805 9.0453 7.16453C8.33754 8.50571 7.62412 9.84397 6.91178 11.1828C6.64983 11.6751 6.38519 12.166 6.12351 12.6585C6.06129 12.7755 5.96956 12.8406 5.83627 12.813C5.70377 12.7856 5.73043 12.6676 5.71958 12.5747C5.6383 11.8786 5.57082 11.1805 5.46879 10.4873C5.43644 10.2676 5.47397 10.0216 5.32006 9.79712C4.60467 10.3518 3.83754 10.8053 3.30067 11.5294C3.14359 11.7413 2.95748 11.9323 2.78217 12.1307C2.71087 12.2114 2.63813 12.2933 2.51328 12.2895C1.94531 12.2723 1.37999 12.2289 0.785945 12.1492C0.931885 11.7395 1.18541 11.4197 1.33743 11.0546C1.49721 10.6708 1.76976 10.4967 2.17372 10.4243C2.59762 10.3483 3.04757 10.2993 3.42055 10.0816C3.98848 9.74997 4.51919 9.3563 5.07031 8.99589C5.21291 8.90264 5.2648 8.78559 5.24389 8.62524C5.12804 7.73713 5.02281 6.8475 4.8928 5.96143C4.83274 5.55204 4.64069 5.41615 4.22236 5.42168C3.71439 5.42839 3.28927 5.53421 2.89862 5.94684C1.86396 7.0397 0.914571 8.17428 0.406994 9.60933C0.117652 10.4274 -0.0047821 11.2609 0.340829 12.0924C0.769398 13.1236 1.64365 13.6019 2.67881 13.8289C3.83432 14.0822 4.99489 13.9982 6.13661 13.7367C9.4796 12.9713 12.312 11.3135 14.6716 8.86286C15.6192 7.8787 16.391 6.77326 16.7954 5.453C17.0231 4.70963 17.0933 3.95439 16.8019 3.21467C16.4298 2.2703 15.6637 1.76263 14.713 1.5161C13.2812 1.1448 11.8587 1.30829 10.4513 1.66861C8.4012 2.1935 6.54816 3.1307 4.83275 4.34539C4.51709 4.56891 4.218 4.81534 3.91126 5.05119C3.92394 5.07823 3.93662 5.10526 3.94931 5.1323C5.02189 4.87787 6.09448 4.62344 7.17128 4.36802C7.24972 4.64552 7.07822 4.67478 6.93077 4.72246C6.23515 4.94742 6.12325 5.09333 6.16912 5.79454C6.1977 6.23143 6.23765 6.66917 6.30568 7.10141C6.35313 7.4029 6.34808 7.71616 6.45269 8.00508C6.57968 8.0063 6.65605 7.94011 6.73665 7.886C7.16105 7.60107 7.56317 7.27507 8.01324 7.03814C8.69742 6.67796 9.12322 6.12819 9.41014 5.44224C9.50815 5.20795 9.63616 4.98465 9.71864 4.74558C9.84883 4.36817 9.70161 4.18407 9.30177 4.18496C9.19666 4.18519 9.08646 4.23271 8.98504 4.15729C8.92785 3.95851 9.04646 3.9077 9.21116 3.86835C9.90046 3.70362 10.586 3.52332 11.2769 3.36543C11.4191 3.33292 11.5704 3.23327 11.8091 3.377C11.4424 3.75347 10.9205 3.91654 10.6407 4.35092C10.3578 4.79009 10.0747 5.22491 9.84872 5.69258C9.87068 5.71209 9.89265 5.7316 9.91461 5.75111C11.6143 4.61822 13.314 3.48532 15.0136 2.35243C15.039 2.38796 15.0644 2.42349 15.0897 2.45902C14.6108 2.82368 14.1319 3.18834 13.6197 3.57891ZM2.2046 10.5707C1.84612 10.6008 1.61378 10.7829 1.47732 11.1157C1.38518 11.3404 1.25068 11.5481 1.1358 11.7638C1.09115 11.8476 1.02209 11.9271 1.09027 12.0569C1.52237 12.0136 1.94982 12.1623 2.39395 12.1437C2.54041 12.1375 2.63525 12.0842 2.71649 11.9775C3.36908 11.1205 4.1488 10.3944 5.06045 9.81659C5.37037 9.62016 5.38748 9.39843 5.25561 9.08997C4.98789 9.1854 4.77312 9.35779 4.55762 9.51782C3.86433 10.0327 3.133 10.4558 2.2046 10.5707ZM7.65421 8.74849C7.82242 8.42657 7.99063 8.10465 8.17826 7.74557C8.08545 7.75814 8.05155 7.75266 8.03247 7.76678C7.56754 8.11089 7.1039 8.45673 6.6409 8.80338C6.58488 8.84532 6.52811 8.90032 6.54115 8.97291C6.62108 9.4179 6.61342 9.87651 6.75302 10.3805C7.12211 9.84597 7.32687 9.28753 7.65421 8.74849ZM7.71738 7.81173C8.06405 7.52646 8.5305 7.34637 8.62903 6.79519C7.93965 7.253 7.27799 7.68942 6.61994 8.1311C6.40461 8.27563 6.43287 8.45597 6.56527 8.67587C6.95081 8.38595 7.31675 8.11078 7.71738 7.81173ZM10.792 5.35346C10.3275 5.68922 9.75701 5.89931 9.46577 6.44175C10.1869 5.99481 10.8477 5.47032 11.4801 4.90358C11.2625 5.04553 11.0449 5.18749 10.792 5.35346Z" fill="#A57B7B"/>
</g>
<defs>
<clipPath id="clip0_114_261">
<rect width="18" height="15" fill="white"/>
</clipPath>
</defs>
</svg>
